<svg width="18" height="18" viewBox="0 0 18 18" fill="none" xmlns="http://www.w3.org/2000/svg">
<path d="M5.43359 11.0374L8.93031 13.0801V17.8521L1.59572 13.5142C1.54473 13.4839 1.5137 13.4288 1.51423 13.3695C1.51478 13.3102 1.54681 13.2557 1.59834 13.2263L5.43359 11.0374Z" fill="#0062FF"/>
<path opacity="0.6" d="M8.93211 17.8487V13.0767L5.65056 10.8989L1.37579 13.3771L8.93211 17.8487Z" fill="url(#paint0_linear_14_875)"/>
<path d="M8.93446 17.8526L8.87671 13.1311L9.17851 13.095L8.93446 17.8526Z" fill="#144DD4"/>
<path d="M16.5451 8.97906L16.658 13.6744L8.93304 17.8594V13.1229L16.5451 8.97906Z" fill="url(#paint1_linear_14_875)"/>
<path d="M16.661 13.6699V4.41248L13.1118 6.30893V10.8232L16.661 13.6699Z" fill="url(#paint2_linear_14_875)"/>
<path d="M5.20258 6.60919L8.93548 8.4945V13.1544L1.41262 8.93783C1.36001 8.90794 1.32771 8.85195 1.32825 8.79147C1.3288 8.73098 1.3621 8.67555 1.41525 8.64664L5.20258 6.60919Z" fill="#0082FF"/>
<path opacity="0.601" d="M8.93222 13.3668L8.92896 8.73387L5.06353 6.60919L1.52549 8.58765C1.44729 8.63115 1.39844 8.71324 1.39747 8.80272C1.39654 8.89215 1.44364 8.97525 1.52089 9.02044L8.93222 13.3668Z" fill="url(#paint3_linear_14_875)"/>
<path d="M8.75567 0.183409L1.28726 4.38619C1.23503 4.41578 1.20276 4.47113 1.20276 4.53113C1.20276 4.59113 1.23503 4.64648 1.28726 4.67607L8.93346 8.99622L16.659 4.40914L9.08173 0.182754C8.98052 0.126431 8.8573 0.126679 8.75631 0.183409H8.75567Z" fill="url(#paint4_linear_14_875)"/>
<defs>
<linearGradient id="paint0_linear_14_875" x1="8.92146" y1="13.4" x2="6.99947" y2="16.3267" gradientUnits="userSpaceOnUse">
<stop stop-color="#0044B1"/>
<stop offset="1" stop-color="#0062FF" stop-opacity="0"/>
</linearGradient>
<linearGradient id="paint1_linear_14_875" x1="9.87493" y1="15.561" x2="14.1002" y2="12.9051" gradientUnits="userSpaceOnUse">
<stop stop-color="#1A4ACC"/>
<stop offset="1" stop-color="#0854E4"/>
</linearGradient>
<linearGradient id="paint2_linear_14_875" x1="14.8864" y1="12.3892" x2="14.8864" y2="5.56418" gradientUnits="userSpaceOnUse">
<stop stop-color="#0A5DF6"/>
<stop offset="1" stop-color="#124CDC"/>
</linearGradient>
<linearGradient id="paint3_linear_14_875" x1="8.93222" y1="9.13305" x2="7.0522" y2="11.747" gradientUnits="userSpaceOnUse">
<stop stop-color="#0044B1"/>
<stop offset="1" stop-color="#0062FF" stop-opacity="0"/>
</linearGradient>
<linearGradient id="paint4_linear_14_875" x1="8.93091" y1="0.140686" x2="8.93091" y2="8.99622" gradientUnits="userSpaceOnUse">
<stop stop-color="#4AC3FF"/>
<stop offset="1" stop-color="#0E93F8"/>
</linearGradient>
</defs>
</svg>
