<svg width="51" height="30" viewBox="0 0 51 30" fill="none" xmlns="http://www.w3.org/2000/svg">
<path d="M40.7754 4.16504C39.7035 1.04279 48.4468 -1.82807 48.7832 1.45605C49.6261 9.68476 51.3074 24.8174 50.9512 26.5635C50.8395 27.1082 49.6256 29.0902 46.4961 26.9238C43.9933 25.1911 32.2085 10.6295 31.8652 10.3672C28.9248 8.19608 37.127 20.4574 37.2236 22.2881C37.344 24.5759 37.2832 27.1654 34.0322 28.6104C30.7813 30.0551 26.9064 28.4297 26.3037 26.5635L26.2871 26.4072C27.4154 25.3215 28.2012 24.1554 28.7471 23.0078C29.1032 24.5324 30.2497 25.6494 31.6113 25.6494C33.2571 25.6492 34.5916 24.0183 34.5918 22.0068C34.5918 19.9952 33.2572 18.3645 31.6113 18.3643C30.9585 18.3643 30.3543 18.6206 29.8633 19.0557C29.9965 17.9177 29.966 16.9901 29.9473 16.4502L29.9453 16.4053C29.9209 15.6971 29.6767 15.044 29.2227 14.6016C28.767 14.1578 28.105 13.9307 27.2588 14.0684C27.2581 14.0685 27.257 14.0692 27.2559 14.0693C27.2531 14.0697 27.2484 14.0696 27.2432 14.0703C27.2323 14.0718 27.216 14.0743 27.1953 14.0771C27.1531 14.0829 27.0908 14.0916 27.0117 14.1025C26.8531 14.1245 26.625 14.1571 26.3477 14.1973C25.9852 14.2498 25.5383 14.3168 25.0508 14.3926L24.3389 7.47656C24.0027 3.38239 25.6582 -0.229913 29.1553 1.75684C34.1727 7.17574 43.5705 18.4349 44.8701 18.0137C45.3731 17.8478 42.3607 8.78054 40.7754 4.16504Z" fill="black"/>
<path d="M20.8022 2.55029C21.0948 2.40022 21.3473 2.38999 21.5659 2.51025C21.78 2.62828 21.9521 2.86653 22.1001 3.18799C22.2488 3.51101 22.3781 3.92729 22.5015 4.40967C22.8102 5.61685 23.0485 7.11993 23.0415 8.41357C23.038 9.06027 22.9737 9.65834 22.8237 10.1411C22.6739 10.623 22.4362 10.9979 22.0835 11.189C20.72 11.9274 14.4917 13.3684 14.4917 20.1079C14.4918 21.7882 15.1196 22.8559 16.061 23.4409C17.0055 24.0274 18.2763 24.1355 19.5708 23.8745C20.8648 23.6135 22.1772 22.9854 23.1997 22.1099C24.1931 21.2592 24.9077 20.1772 25.0747 18.9761C25.0632 18.9831 25.051 18.9914 25.0376 18.9995C24.9538 19.0503 24.8324 19.1215 24.6831 19.2036C24.3846 19.3677 23.9725 19.5757 23.519 19.7495C23.066 19.9231 22.5685 20.0638 22.1011 20.0923C21.6339 20.1207 21.1896 20.0372 20.8501 19.7554C20.3417 19.3329 19.841 18.6435 19.6177 17.9917C19.5062 17.6659 19.4621 17.3436 19.5259 17.0669C19.5904 16.7872 19.7652 16.5574 20.0786 16.4194C20.3804 16.2868 20.9395 16.1441 21.603 16.0044C22.2687 15.8642 23.0452 15.7255 23.7837 15.604C24.5222 15.4825 25.2239 15.3771 25.7407 15.3022C25.9991 15.2648 26.2122 15.2358 26.3599 15.2153C26.4334 15.2051 26.4916 15.1972 26.5308 15.1919C26.5499 15.1893 26.5647 15.1864 26.5747 15.1851C26.5795 15.1844 26.5839 15.1844 26.5864 15.1841C26.5876 15.1839 26.5888 15.1832 26.5894 15.1831H26.5903C26.9596 15.1172 27.5171 15.0997 27.9907 15.2651C28.2285 15.3483 28.4482 15.4789 28.6108 15.6743C28.7738 15.8704 28.8776 16.1296 28.8892 16.4644C28.9453 18.0937 29.057 23.6102 23.0942 27.2104C18.3398 30.0809 13.7482 28.4234 12.022 27.2212C10.3985 27.6668 7.88463 27.8472 5.58643 26.9448C3.27343 26.0364 1.1837 24.0331 0.440918 20.1177C-0.0217331 17.6782 -0.0925769 15.8579 0.100098 14.5347C0.292888 13.2115 0.750871 12.379 1.3501 11.9233C1.95019 11.467 2.68308 11.3952 3.41064 11.5737C4.13742 11.7522 4.86252 12.1813 5.45557 12.7319C6.39577 13.605 7.09589 14.1966 7.5874 14.5815C7.9574 14.8713 8.20784 15.0427 8.354 15.1284L8.46631 15.187L8.47314 15.1899L8.479 15.1948C8.75321 15.4232 9.22838 15.6835 9.7583 15.7222C10.2847 15.7605 10.8699 15.5805 11.3745 14.9224C12.4048 13.5785 17.4049 6.70842 19.7769 3.43994L19.7798 3.43604H19.7808C20.1762 2.98911 20.5116 2.69946 20.8022 2.55029ZM6.57764 17.7651C5.04614 17.7651 3.80421 19.283 3.8042 21.1548C3.8042 23.0266 5.04613 24.5444 6.57764 24.5444C8.10907 24.5443 9.3501 23.0266 9.3501 21.1548C9.35008 19.283 8.10906 17.7652 6.57764 17.7651Z" fill="#FEC124"/>
</svg>
